<svg width="66" height="66" viewBox="0 0 66 66" fill="none" xmlns="http://www.w3.org/2000/svg">
<g id="carbon:car">
<path id="Vector" d="M60.5096 32.8639L44.5624 27.1322L37.8964 18.7626C37.3168 18.0539 36.5866 17.4832 35.759 17.0918C34.9313 16.7005 34.0269 16.4983 33.1114 16.5H16.6196C15.6111 16.5 14.6178 16.7466 13.7263 17.2182C12.8348 17.6898 12.0721 18.3722 11.5046 19.206L5.91112 27.4209C4.74752 29.1313 4.1252 31.1521 4.125 33.2207V49.5C4.125 50.047 4.3423 50.5716 4.72909 50.9584C5.11589 51.3452 5.64049 51.5625 6.1875 51.5625H10.6054C11.054 53.3326 12.0801 54.9026 13.5213 56.0241C14.9625 57.1455 16.7364 57.7544 18.5625 57.7544C20.3886 57.7544 22.1625 57.1455 23.6037 56.0241C25.0449 54.9026 26.071 53.3326 26.5196 51.5625H39.4804C39.929 53.3326 40.9551 54.9026 42.3963 56.0241C43.8375 57.1455 45.6114 57.7544 47.4375 57.7544C49.2636 57.7544 51.0375 57.1455 52.4787 56.0241C53.9199 54.9026 54.946 53.3326 55.3946 51.5625H59.8125C60.3595 51.5625 60.8841 51.3452 61.2709 50.9584C61.6577 50.5716 61.875 50.047 61.875 49.5V34.8047C61.8749 34.38 61.7438 33.9656 61.4994 33.6183C61.255 33.2709 60.9093 33.0074 60.5096 32.8639ZM18.5625 53.625C17.7467 53.625 16.9491 53.3831 16.2708 52.9298C15.5924 52.4766 15.0637 51.8323 14.7515 51.0786C14.4393 50.3248 14.3576 49.4954 14.5168 48.6953C14.6759 47.8951 15.0688 47.1601 15.6457 46.5832C16.2226 46.0063 16.9576 45.6134 17.7578 45.4543C18.5579 45.2951 19.3873 45.3768 20.1411 45.689C20.8948 46.0012 21.5391 46.5299 21.9923 47.2083C22.4456 47.8866 22.6875 48.6842 22.6875 49.5C22.6859 50.5935 22.2507 51.6418 21.4775 52.415C20.7043 53.1883 19.656 53.6234 18.5625 53.625ZM47.4375 53.625C46.6217 53.625 45.8241 53.3831 45.1458 52.9298C44.4674 52.4766 43.9387 51.8323 43.6265 51.0786C43.3143 50.3248 43.2326 49.4954 43.3918 48.6953C43.5509 47.8951 43.9438 47.1601 44.5207 46.5832C45.0976 46.0063 45.8326 45.6134 46.6328 45.4543C47.4329 45.2951 48.2623 45.3768 49.0161 45.689C49.7698 46.0012 50.4141 46.5299 50.8673 47.2083C51.3206 47.8866 51.5625 48.6842 51.5625 49.5C51.5609 50.5935 51.1257 51.6418 50.3525 52.415C49.5793 53.1883 48.531 53.6234 47.4375 53.625ZM57.75 47.4375H55.3946C54.946 45.6674 53.9199 44.0974 52.4787 42.976C51.0375 41.8545 49.2636 41.2456 47.4375 41.2456C45.6114 41.2456 43.8375 41.8545 42.3963 42.976C40.9551 44.0974 39.929 45.6674 39.4804 47.4375H26.5196C26.071 45.6674 25.0449 44.0974 23.6037 42.976C22.1625 41.8545 20.3886 41.2456 18.5625 41.2456C16.7364 41.2456 14.9625 41.8545 13.5213 42.976C12.0801 44.0974 11.054 45.6674 10.6054 47.4375H8.25V33.2207C8.25003 31.9789 8.62373 30.7658 9.3225 29.7392L14.9139 21.5284C15.103 21.2501 15.3573 21.0223 15.6546 20.8649C15.9519 20.7074 16.2832 20.6251 16.6196 20.625H33.1114C33.4115 20.6251 33.708 20.6906 33.9801 20.8171C34.2523 20.9435 34.4936 21.1279 34.6871 21.3572L41.6996 30.1599C41.9381 30.4593 42.2552 30.6864 42.6154 30.8158L57.75 36.2546V47.4375Z" fill="white"/>
</g>
</svg>
