<svg width="58" height="49" viewBox="0 0 58 49" fill="none" xmlns="http://www.w3.org/2000/svg">
<g id="clarity:trash-line" clip-path="url(#clip0_17_144)">
<path id="Vector" d="M43.7255 46.2777H14.2744C13.6545 46.2653 13.0435 46.1498 12.4763 45.9379C11.9092 45.726 11.397 45.4217 10.9691 45.0425C10.5412 44.6633 10.206 44.2166 9.98247 43.7279C9.75899 43.2392 9.65167 42.7181 9.66666 42.1943V15.2852H12.8889V42.1943C12.8735 42.3607 12.8972 42.5279 12.9586 42.6865C13.02 42.845 13.1179 42.9918 13.2467 43.1183C13.3754 43.2448 13.5325 43.3485 13.7089 43.4235C13.8853 43.4986 14.0775 43.5434 14.2744 43.5554H43.7255C43.9225 43.5434 44.1147 43.4986 44.2911 43.4235C44.4675 43.3485 44.6246 43.2448 44.7533 43.1183C44.8821 42.9918 44.98 42.845 45.0414 42.6865C45.1028 42.5279 45.1265 42.3607 45.1111 42.1943V15.2852H48.3333V42.1943C48.3483 42.7181 48.241 43.2392 48.0175 43.7279C47.794 44.2166 47.4588 44.6633 47.0309 45.0425C46.603 45.4217 46.0908 45.726 45.5237 45.9379C44.9565 46.1498 44.3455 46.2653 43.7255 46.2777Z" fill="white"/>
<path id="Vector_2" d="M49.59 12.2501H8.05554C7.62825 12.2501 7.21845 12.1067 6.91631 11.8514C6.61417 11.5961 6.44443 11.2499 6.44443 10.8889C6.44443 10.528 6.61417 10.1818 6.91631 9.92649C7.21845 9.67123 7.62825 9.52783 8.05554 9.52783H49.59C50.0173 9.52783 50.4271 9.67123 50.7292 9.92649C51.0314 10.1818 51.2011 10.528 51.2011 10.8889C51.2011 11.2499 51.0314 11.5961 50.7292 11.8514C50.4271 12.1067 50.0173 12.2501 49.59 12.2501Z" fill="white"/>
<path id="Vector_3" d="M33.8333 17.6946H37.0555V38.1112H33.8333V17.6946Z" fill="white"/>
<path id="Vector_4" d="M20.9444 17.6946H24.1666V38.1112H20.9444V17.6946Z" fill="white"/>
<path id="Vector_5" d="M37.0555 7.97606H33.9944V5.44439H24.0055V7.97606H20.9444V5.44439C20.9434 4.74539 21.2607 4.07283 21.8305 3.56606C22.4004 3.05928 23.1792 2.75712 24.0055 2.72217H33.9944C34.8208 2.75712 35.5996 3.05928 36.1694 3.56606C36.7393 4.07283 37.0566 4.74539 37.0555 5.44439V7.97606Z" fill="white"/>
</g>
<defs>
<clipPath id="clip0_17_144">
<rect width="58" height="49" fill="white"/>
</clipPath>
</defs>
</svg>
