<svg width="62" height="50" viewBox="0 0 62 50" fill="none" xmlns="http://www.w3.org/2000/svg">
<g id="game-icons:three-friends">
<path id="Vector" d="M47.1055 3.98828C49.3457 3.98828 51.3437 5.82324 51.3437 8.28809C51.3437 10.7617 49.3457 12.5879 47.1055 12.5879C44.8652 12.5879 42.8672 10.7617 42.8672 8.28809C42.8672 5.82324 44.8652 3.98828 47.1055 3.98828ZM31.0121 3.98828C33.2402 3.98828 35.2504 5.82324 35.2504 8.28809C35.2504 10.7617 33.2402 12.5879 31.0121 12.5879C28.7719 12.5879 26.7617 10.7617 26.7617 8.28809C26.7617 5.82324 28.7719 3.98828 31.0121 3.98828ZM14.9066 3.98828C17.1469 3.98828 19.1449 5.82324 19.1449 8.28809C19.1449 10.7617 17.1469 12.5879 14.9066 12.5879C12.6664 12.5879 10.6575 10.7617 10.6575 8.28809C10.6575 5.82324 12.6664 3.98828 14.9066 3.98828ZM31.0121 14.6387C38.7621 14.834 45.3012 14.834 53.148 15.0488C56.8898 16.7871 58.6215 25.6934 58.5125 28.7891L56.3812 30.5176C55.4488 26.3379 54.2742 20.7617 52.3246 19.5215V28.0762L52.8211 46.0156H50.1328L48.1105 27.9785H45.9309L43.9086 46.0156H41.2082L41.7168 28.0762L40.748 19.4336H37.2L36.3281 28.0469L36.8367 45.9863H34.1363L32.1019 27.9492H29.9223L27.8879 45.9863H25.1996L25.7082 28.0469L24.8242 19.4336H21.2762L20.3074 28.0762L20.816 46.0156H18.1156L16.0934 27.9785H13.9137L11.8684 46.0156H9.18011L9.68871 28.0762V19.5215C7.72699 20.7617 6.55238 26.3379 5.61996 30.5176L3.48871 28.7891C3.37972 25.6934 5.12347 16.7871 8.85316 15.0488C16.723 14.834 23.2621 14.834 31.0121 14.6387Z" fill="white"/>
</g>
</svg>
