<svg width="60" height="60" viewBox="0 0 60 60" fill="none" xmlns="http://www.w3.org/2000/svg">
<g id="solar:health-broken">
<g id="Group">
<path id="Vector" d="M46.25 22.5H41.25M41.25 22.5H36.25M41.25 22.5V17.5M41.25 22.5V27.5" stroke="white" stroke-width="3.75" stroke-linecap="round"/>
<path id="Vector_2" d="M30 13.9351L28.63 15.2151C28.8054 15.4028 29.0175 15.5525 29.2532 15.6548C29.4889 15.7572 29.7431 15.81 30 15.81C30.2569 15.81 30.5111 15.7572 30.7468 15.6548C30.9825 15.5525 31.1946 15.4028 31.37 15.2151L30 13.9351ZM6.63 34.2051C6.75369 34.4231 6.91983 34.614 7.11858 34.7667C7.31733 34.9193 7.54467 35.0306 7.78716 35.0939C8.02964 35.1572 8.28236 35.1712 8.53036 35.1352C8.77837 35.0991 9.01663 35.0137 9.23107 34.884C9.44551 34.7543 9.63177 34.583 9.77885 34.38C9.92592 34.1771 10.0308 33.9468 10.0874 33.7026C10.1439 33.4585 10.1509 33.2055 10.108 32.9586C10.0651 32.7117 9.9731 32.4759 9.8375 32.2651L6.63 34.2051ZM16.3425 40.4276C16.1731 40.2419 15.9681 40.0921 15.7396 39.9872C15.5111 39.8823 15.2639 39.8244 15.0126 39.817C14.7614 39.8096 14.5111 39.8527 14.2769 39.9439C14.0426 40.0352 13.8291 40.1725 13.649 40.3479C13.4689 40.5233 13.3259 40.7332 13.2286 40.9649C13.1312 41.1967 13.0814 41.4457 13.0822 41.6971C13.083 41.9485 13.1343 42.1971 13.2332 42.4283C13.332 42.6594 13.4763 42.8683 13.6575 43.0426L16.3425 40.4276ZM6.875 23.2951C6.875 16.0326 10.045 11.5451 13.965 10.0076C17.8775 8.47511 23.35 9.57011 28.63 15.2151L31.37 12.6551C25.4 6.27011 18.3725 4.25511 12.5975 6.51511C6.83 8.77511 3.125 14.9801 3.125 23.2951H6.875ZM38.775 49.9001C42.5075 46.8726 46.9775 42.8151 50.5325 38.2826C54.05 33.7976 56.875 28.5851 56.875 23.2901H53.125C53.125 27.3201 50.925 31.7001 47.58 35.9676C44.27 40.1901 40.04 44.0476 36.415 46.9876L38.775 49.9001ZM56.875 23.2901C56.875 14.9776 53.17 8.77261 47.4 6.51511C41.625 4.25261 34.6 6.26511 28.63 12.6526L31.37 15.2151C36.65 9.57011 42.1225 8.47261 46.035 10.0051C49.955 11.5401 53.125 16.0301 53.125 23.2901H56.875ZM21.225 49.9026C24.4 52.4826 26.605 54.3751 30 54.3751V50.6251C28.1925 50.6251 27.0675 49.8151 23.585 46.9901L21.225 49.9026ZM36.415 46.9876C32.9325 49.8126 31.8075 50.6251 30 50.6251V54.3751C33.395 54.3751 35.6025 52.4826 38.7775 49.9026L36.415 46.9876ZM9.84 32.2651C7.9675 29.1751 6.875 26.1376 6.875 23.2951H3.125C3.125 27.0751 4.565 30.7951 6.63 34.2051L9.84 32.2651ZM23.585 46.9901C21.0465 44.9438 18.6283 42.7527 16.3425 40.4276L13.6575 43.0426C16.0448 45.4732 18.5732 47.7637 21.225 49.9026L23.585 46.9901Z" fill="white"/>
</g>
</g>
</svg>
